<mxfile host="app.diagrams.net" agent="Mozilla/5.0 (Windows NT 10.0; Win64; x64) AppleWebKit/537.36 (KHTML, like Gecko) Chrome/129.0.0.0 Safari/537.36" version="24.7.17">
  <diagram name="Página-1" id="XuqoZiqs7IiPq1Q4melN">
    <mxGraphModel dx="1434" dy="786" grid="1" gridSize="10" guides="1" tooltips="1" connect="1" arrows="1" fold="1" page="1" pageScale="1" pageWidth="827" pageHeight="1169" math="0" shadow="0">
      <root>
        <mxCell id="0" />
        <mxCell id="1" parent="0" />
        <mxCell id="6Qf-JgeF5fkzaSCFaMW6-1" value="" style="whiteSpace=wrap;html=1;aspect=fixed;" vertex="1" parent="1">
          <mxGeometry x="168" y="200" width="740" height="740" as="geometry" />
        </mxCell>
        <mxCell id="6Qf-JgeF5fkzaSCFaMW6-2" value="Usuário" style="shape=umlActor;verticalLabelPosition=bottom;verticalAlign=top;html=1;" vertex="1" parent="1">
          <mxGeometry y="400" width="70" height="120" as="geometry" />
        </mxCell>
        <mxCell id="6Qf-JgeF5fkzaSCFaMW6-4" value="Controle de estoque" style="text;html=1;align=center;verticalAlign=middle;resizable=0;points=[];autosize=1;strokeColor=none;fillColor=none;" vertex="1" parent="1">
          <mxGeometry x="490" y="210" width="130" height="30" as="geometry" />
        </mxCell>
        <mxCell id="6Qf-JgeF5fkzaSCFaMW6-5" value="Cadastrar produto" style="ellipse;whiteSpace=wrap;html=1;" vertex="1" parent="1">
          <mxGeometry x="290" y="260" width="140" height="70" as="geometry" />
        </mxCell>
        <mxCell id="6Qf-JgeF5fkzaSCFaMW6-6" value="Remover produto" style="ellipse;whiteSpace=wrap;html=1;" vertex="1" parent="1">
          <mxGeometry x="290" y="340" width="140" height="70" as="geometry" />
        </mxCell>
        <mxCell id="6Qf-JgeF5fkzaSCFaMW6-7" value="Editar produto" style="ellipse;whiteSpace=wrap;html=1;" vertex="1" parent="1">
          <mxGeometry x="290" y="480" width="140" height="70" as="geometry" />
        </mxCell>
        <mxCell id="6Qf-JgeF5fkzaSCFaMW6-8" value="Visualizar faturamento" style="ellipse;whiteSpace=wrap;html=1;" vertex="1" parent="1">
          <mxGeometry x="290" y="560" width="140" height="70" as="geometry" />
        </mxCell>
        <mxCell id="6Qf-JgeF5fkzaSCFaMW6-12" value="" style="endArrow=none;html=1;rounded=0;exitX=0.5;exitY=0.5;exitDx=0;exitDy=0;exitPerimeter=0;entryX=0;entryY=0.5;entryDx=0;entryDy=0;" edge="1" parent="1" source="6Qf-JgeF5fkzaSCFaMW6-2" target="6Qf-JgeF5fkzaSCFaMW6-5">
          <mxGeometry width="50" height="50" relative="1" as="geometry">
            <mxPoint x="220" y="580" as="sourcePoint" />
            <mxPoint x="270" y="530" as="targetPoint" />
          </mxGeometry>
        </mxCell>
        <mxCell id="6Qf-JgeF5fkzaSCFaMW6-13" value="" style="endArrow=none;html=1;rounded=0;exitX=0.5;exitY=0.5;exitDx=0;exitDy=0;exitPerimeter=0;entryX=0;entryY=0.5;entryDx=0;entryDy=0;" edge="1" parent="1" source="6Qf-JgeF5fkzaSCFaMW6-2" target="6Qf-JgeF5fkzaSCFaMW6-6">
          <mxGeometry width="50" height="50" relative="1" as="geometry">
            <mxPoint x="125" y="530" as="sourcePoint" />
            <mxPoint x="250" y="295" as="targetPoint" />
          </mxGeometry>
        </mxCell>
        <mxCell id="6Qf-JgeF5fkzaSCFaMW6-14" value="" style="endArrow=none;html=1;rounded=0;entryX=0;entryY=0.5;entryDx=0;entryDy=0;exitX=0.5;exitY=0.5;exitDx=0;exitDy=0;exitPerimeter=0;" edge="1" parent="1" source="6Qf-JgeF5fkzaSCFaMW6-2" target="6Qf-JgeF5fkzaSCFaMW6-7">
          <mxGeometry width="50" height="50" relative="1" as="geometry">
            <mxPoint x="120" y="520" as="sourcePoint" />
            <mxPoint x="250" y="375" as="targetPoint" />
          </mxGeometry>
        </mxCell>
        <mxCell id="6Qf-JgeF5fkzaSCFaMW6-15" value="" style="endArrow=none;html=1;rounded=0;entryX=0;entryY=0.5;entryDx=0;entryDy=0;exitX=0.5;exitY=0.5;exitDx=0;exitDy=0;exitPerimeter=0;" edge="1" parent="1" source="6Qf-JgeF5fkzaSCFaMW6-2" target="6Qf-JgeF5fkzaSCFaMW6-8">
          <mxGeometry width="50" height="50" relative="1" as="geometry">
            <mxPoint x="125" y="530" as="sourcePoint" />
            <mxPoint x="250" y="455" as="targetPoint" />
          </mxGeometry>
        </mxCell>
        <mxCell id="6Qf-JgeF5fkzaSCFaMW6-16" value="Consultar produto no estoque" style="ellipse;whiteSpace=wrap;html=1;" vertex="1" parent="1">
          <mxGeometry x="560" y="420" width="120" height="80" as="geometry" />
        </mxCell>
        <mxCell id="6Qf-JgeF5fkzaSCFaMW6-17" value="" style="endArrow=none;html=1;rounded=0;entryX=0;entryY=0.5;entryDx=0;entryDy=0;exitX=0.5;exitY=0.5;exitDx=0;exitDy=0;exitPerimeter=0;" edge="1" parent="1" source="6Qf-JgeF5fkzaSCFaMW6-2" target="6Qf-JgeF5fkzaSCFaMW6-16">
          <mxGeometry width="50" height="50" relative="1" as="geometry">
            <mxPoint x="220" y="580" as="sourcePoint" />
            <mxPoint x="270" y="530" as="targetPoint" />
          </mxGeometry>
        </mxCell>
        <mxCell id="6Qf-JgeF5fkzaSCFaMW6-18" value="&#xa;&lt;span style=&quot;color: rgb(0, 0, 0); font-family: Helvetica; font-size: 11px; font-style: normal; font-variant-ligatures: normal; font-variant-caps: normal; font-weight: 400; letter-spacing: normal; orphans: 2; text-align: center; text-indent: 0px; text-transform: none; widows: 2; word-spacing: 0px; -webkit-text-stroke-width: 0px; white-space: nowrap; background-color: rgb(255, 255, 255); text-decoration-thickness: initial; text-decoration-style: initial; text-decoration-color: initial; display: inline !important; float: none;&quot;&gt;&amp;lt;&amp;lt;Includes&amp;gt;&amp;gt;&lt;/span&gt;&#xa;&#xa;" style="endArrow=block;dashed=1;html=1;rounded=0;exitX=1;exitY=0.5;exitDx=0;exitDy=0;endFill=0;" edge="1" parent="1" source="6Qf-JgeF5fkzaSCFaMW6-7" target="6Qf-JgeF5fkzaSCFaMW6-16">
          <mxGeometry width="50" height="50" relative="1" as="geometry">
            <mxPoint x="220" y="480" as="sourcePoint" />
            <mxPoint x="270" y="430" as="targetPoint" />
          </mxGeometry>
        </mxCell>
        <mxCell id="6Qf-JgeF5fkzaSCFaMW6-19" value="&#xa;&lt;span style=&quot;color: rgb(0, 0, 0); font-family: Helvetica; font-size: 11px; font-style: normal; font-variant-ligatures: normal; font-variant-caps: normal; font-weight: 400; letter-spacing: normal; orphans: 2; text-align: center; text-indent: 0px; text-transform: none; widows: 2; word-spacing: 0px; -webkit-text-stroke-width: 0px; white-space: nowrap; background-color: rgb(255, 255, 255); text-decoration-thickness: initial; text-decoration-style: initial; text-decoration-color: initial; display: inline !important; float: none;&quot;&gt;&amp;lt;&amp;lt;Includes&amp;gt;&amp;gt;&lt;/span&gt;&#xa;&#xa;" style="endArrow=block;dashed=1;html=1;rounded=0;exitX=1;exitY=0.5;exitDx=0;exitDy=0;endFill=0;entryX=0;entryY=0;entryDx=0;entryDy=0;" edge="1" parent="1" source="6Qf-JgeF5fkzaSCFaMW6-6" target="6Qf-JgeF5fkzaSCFaMW6-16">
          <mxGeometry width="50" height="50" relative="1" as="geometry">
            <mxPoint x="440" y="525" as="sourcePoint" />
            <mxPoint x="497" y="488" as="targetPoint" />
          </mxGeometry>
        </mxCell>
        <mxCell id="6Qf-JgeF5fkzaSCFaMW6-20" value="&amp;lt;&amp;lt;Includes&amp;gt;&amp;gt;" style="endArrow=block;dashed=1;html=1;rounded=0;exitX=1;exitY=0.5;exitDx=0;exitDy=0;endFill=0;entryX=0.463;entryY=-0.03;entryDx=0;entryDy=0;entryPerimeter=0;" edge="1" parent="1" source="6Qf-JgeF5fkzaSCFaMW6-5" target="6Qf-JgeF5fkzaSCFaMW6-16">
          <mxGeometry width="50" height="50" relative="1" as="geometry">
            <mxPoint x="440" y="385" as="sourcePoint" />
            <mxPoint x="498" y="432" as="targetPoint" />
          </mxGeometry>
        </mxCell>
        <mxCell id="6Qf-JgeF5fkzaSCFaMW6-21" value="Alertar quando atingir uma quantidade no estoque" style="ellipse;whiteSpace=wrap;html=1;" vertex="1" parent="1">
          <mxGeometry x="690" y="290" width="120" height="80" as="geometry" />
        </mxCell>
        <mxCell id="6Qf-JgeF5fkzaSCFaMW6-22" value="&amp;lt;&amp;lt;extends&amp;gt;&amp;gt;" style="endArrow=block;dashed=1;html=1;rounded=0;exitX=0.5;exitY=1;exitDx=0;exitDy=0;endFill=0;entryX=1;entryY=0.5;entryDx=0;entryDy=0;" edge="1" parent="1" source="6Qf-JgeF5fkzaSCFaMW6-21" target="6Qf-JgeF5fkzaSCFaMW6-16">
          <mxGeometry width="50" height="50" relative="1" as="geometry">
            <mxPoint x="440" y="305" as="sourcePoint" />
            <mxPoint x="626" y="428" as="targetPoint" />
          </mxGeometry>
        </mxCell>
        <mxCell id="6Qf-JgeF5fkzaSCFaMW6-23" value="Visualizar estatísticas de venda" style="ellipse;whiteSpace=wrap;html=1;" vertex="1" parent="1">
          <mxGeometry x="290" y="640" width="140" height="70" as="geometry" />
        </mxCell>
        <mxCell id="6Qf-JgeF5fkzaSCFaMW6-24" value="Listar vendas" style="ellipse;whiteSpace=wrap;html=1;" vertex="1" parent="1">
          <mxGeometry x="290" y="720" width="140" height="70" as="geometry" />
        </mxCell>
        <mxCell id="6Qf-JgeF5fkzaSCFaMW6-27" value="" style="endArrow=none;html=1;rounded=0;exitX=0.5;exitY=0.5;exitDx=0;exitDy=0;exitPerimeter=0;entryX=0;entryY=0.5;entryDx=0;entryDy=0;" edge="1" parent="1" source="6Qf-JgeF5fkzaSCFaMW6-2" target="6Qf-JgeF5fkzaSCFaMW6-23">
          <mxGeometry width="50" height="50" relative="1" as="geometry">
            <mxPoint x="160" y="620" as="sourcePoint" />
            <mxPoint x="210" y="570" as="targetPoint" />
          </mxGeometry>
        </mxCell>
        <mxCell id="6Qf-JgeF5fkzaSCFaMW6-28" value="" style="endArrow=none;html=1;rounded=0;entryX=0;entryY=0.5;entryDx=0;entryDy=0;" edge="1" parent="1" target="6Qf-JgeF5fkzaSCFaMW6-24">
          <mxGeometry width="50" height="50" relative="1" as="geometry">
            <mxPoint x="36" y="460" as="sourcePoint" />
            <mxPoint x="210" y="570" as="targetPoint" />
          </mxGeometry>
        </mxCell>
        <mxCell id="6Qf-JgeF5fkzaSCFaMW6-29" value="Verificar vendas" style="ellipse;whiteSpace=wrap;html=1;" vertex="1" parent="1">
          <mxGeometry x="540" y="590" width="120" height="80" as="geometry" />
        </mxCell>
        <mxCell id="6Qf-JgeF5fkzaSCFaMW6-30" value="&#xa;&lt;span style=&quot;color: rgb(0, 0, 0); font-family: Helvetica; font-size: 11px; font-style: normal; font-variant-ligatures: normal; font-variant-caps: normal; font-weight: 400; letter-spacing: normal; orphans: 2; text-align: center; text-indent: 0px; text-transform: none; widows: 2; word-spacing: 0px; -webkit-text-stroke-width: 0px; white-space: nowrap; background-color: rgb(255, 255, 255); text-decoration-thickness: initial; text-decoration-style: initial; text-decoration-color: initial; display: inline !important; float: none;&quot;&gt;&amp;lt;&amp;lt;Includes&amp;gt;&amp;gt;&lt;/span&gt;&#xa;&#xa;" style="endArrow=block;dashed=1;html=1;rounded=0;exitX=1;exitY=0.5;exitDx=0;exitDy=0;endFill=0;entryX=0.1;entryY=0.263;entryDx=0;entryDy=0;entryPerimeter=0;" edge="1" parent="1" source="6Qf-JgeF5fkzaSCFaMW6-8" target="6Qf-JgeF5fkzaSCFaMW6-29">
          <mxGeometry width="50" height="50" relative="1" as="geometry">
            <mxPoint x="440" y="525" as="sourcePoint" />
            <mxPoint x="540" y="610" as="targetPoint" />
          </mxGeometry>
        </mxCell>
        <mxCell id="6Qf-JgeF5fkzaSCFaMW6-31" value="&#xa;&lt;span style=&quot;color: rgb(0, 0, 0); font-family: Helvetica; font-size: 11px; font-style: normal; font-variant-ligatures: normal; font-variant-caps: normal; font-weight: 400; letter-spacing: normal; orphans: 2; text-align: center; text-indent: 0px; text-transform: none; widows: 2; word-spacing: 0px; -webkit-text-stroke-width: 0px; white-space: nowrap; background-color: rgb(255, 255, 255); text-decoration-thickness: initial; text-decoration-style: initial; text-decoration-color: initial; display: inline !important; float: none;&quot;&gt;&amp;lt;&amp;lt;Includes&amp;gt;&amp;gt;&lt;/span&gt;&#xa;&#xa;" style="endArrow=block;dashed=1;html=1;rounded=0;exitX=1;exitY=0.5;exitDx=0;exitDy=0;endFill=0;entryX=0.1;entryY=0.788;entryDx=0;entryDy=0;entryPerimeter=0;" edge="1" parent="1" source="6Qf-JgeF5fkzaSCFaMW6-23" target="6Qf-JgeF5fkzaSCFaMW6-29">
          <mxGeometry width="50" height="50" relative="1" as="geometry">
            <mxPoint x="440" y="605" as="sourcePoint" />
            <mxPoint x="540" y="630" as="targetPoint" />
          </mxGeometry>
        </mxCell>
        <mxCell id="6Qf-JgeF5fkzaSCFaMW6-32" value="&#xa;&lt;span style=&quot;color: rgb(0, 0, 0); font-family: Helvetica; font-size: 11px; font-style: normal; font-variant-ligatures: normal; font-variant-caps: normal; font-weight: 400; letter-spacing: normal; orphans: 2; text-align: center; text-indent: 0px; text-transform: none; widows: 2; word-spacing: 0px; -webkit-text-stroke-width: 0px; white-space: nowrap; background-color: rgb(255, 255, 255); text-decoration-thickness: initial; text-decoration-style: initial; text-decoration-color: initial; display: inline !important; float: none;&quot;&gt;&amp;lt;&amp;lt;Includes&amp;gt;&amp;gt;&lt;/span&gt;&#xa;&#xa;" style="endArrow=block;dashed=1;html=1;rounded=0;exitX=1;exitY=0.5;exitDx=0;exitDy=0;endFill=0;entryX=0.417;entryY=1.038;entryDx=0;entryDy=0;entryPerimeter=0;" edge="1" parent="1" source="6Qf-JgeF5fkzaSCFaMW6-24" target="6Qf-JgeF5fkzaSCFaMW6-29">
          <mxGeometry width="50" height="50" relative="1" as="geometry">
            <mxPoint x="450" y="615" as="sourcePoint" />
            <mxPoint x="560" y="650" as="targetPoint" />
          </mxGeometry>
        </mxCell>
      </root>
    </mxGraphModel>
  </diagram>
</mxfile>
